<svg height="512" viewBox="0 0 512 512" width="512" xmlns="http://www.w3.org/2000/svg"><g id="Out_line" data-name="Out line"><path d="m448 240h-184v-32h8v-16h-8v-32h40v-16h-232v-48h248v-16h-256a8.00008 8.00008 0 0 0 -8 8v240h16v-24h80v24h16v-24h80v32h-40v16h40v16h16v-16h80v32h-80v16h80v32h-80v-24h-16v24h-24v16h120v40a7.9979 7.9979 0 0 0 8 8h96a7.9979 7.9979 0 0 0 8-8v-240a7.99782 7.99782 0 0 0 -8-8zm-8 48h-80v-32h80zm0 48h-80v-32h80zm-96-80v32h-80v-32zm-96-16h-80v-32h80zm-96 0h-80v-32h80zm96-48h-80v-32h80zm-96-32v32h-80v-32zm-80 128v-32h80v32zm96 0v-32h80v32zm96 48v-32h80v32zm176 144h-80v-32h80zm0-48h-80v-32h80zm0-48h-80v-32h80z"/><path d="m280 408h16v16h-16z"/><path d="m312 408h16v16h-16z"/><path d="m376 408h16v16h-16z"/><path d="m408 408h16v16h-16z"/><path d="m280 360h16v16h-16z"/><path d="m312 360h16v16h-16z"/><path d="m216 360h16v16h-16z"/><path d="m376 360h16v16h-16z"/><path d="m408 360h16v16h-16z"/><path d="m216 312h16v16h-16z"/><path d="m184 312h16v16h-16z"/><path d="m280 312h16v16h-16z"/><path d="m312 312h16v16h-16z"/><path d="m376 312h16v16h-16z"/><path d="m408 312h16v16h-16z"/><path d="m88 264h16v16h-16z"/><path d="m120 264h16v16h-16z"/><path d="m88 312h16v16h-16z"/><path d="m120 312h16v16h-16z"/><path d="m184 264h16v16h-16z"/><path d="m216 264h16v16h-16z"/><path d="m280 264h16v16h-16z"/><path d="m312 264h16v16h-16z"/><path d="m376 264h16v16h-16z"/><path d="m408 264h16v16h-16z"/><path d="m88 216h16v16h-16z"/><path d="m120 216h16v16h-16z"/><path d="m184 216h16v16h-16z"/><path d="m216 216h16v16h-16z"/><path d="m280 216h16v16h-16z"/><path d="m312 216h16v16h-16z"/><path d="m88 168h16v16h-16z"/><path d="m120 168h16v16h-16z"/><path d="m184 168h16v16h-16z"/><path d="m216 168h16v16h-16z"/><path d="m376 456h16v16h-16z"/><path d="m408 456h16v16h-16z"/><path d="m488 16h-144a8.00008 8.00008 0 0 0 -8 8v124.686l-45.65723 45.65722a8.00038 8.00038 0 0 0 5.65723 13.65678h40v8a8.00008 8.00008 0 0 0 8 8h144a8.00008 8.00008 0 0 0 8-8v-192a8.00008 8.00008 0 0 0 -8-8zm-8 192h-128v-8a8.00008 8.00008 0 0 0 -8-8h-28.68652l34.34375-34.34326a8.00035 8.00035 0 0 0 2.34277-5.65674v-120h128z"/><path d="m368 192h96a8.00008 8.00008 0 0 0 8-8v-128a8.00008 8.00008 0 0 0 -8-8h-32a8.00008 8.00008 0 0 0 -8 8v32h-24a8.00008 8.00008 0 0 0 -8 8v16h-24a8.00008 8.00008 0 0 0 -8 8v64a8.00008 8.00008 0 0 0 8 8zm72-128h16v112h-16zm-32 40h16v72h-16zm-32 24h16v48h-16z"/><path d="m239.39062 388.93848a8 8 0 0 0 -7.39062-4.93848h-40v-32a8.00008 8.00008 0 0 0 -8-8h-160a8.00008 8.00008 0 0 0 -8 8v136a8.00008 8.00008 0 0 0 8 8h160a8.00008 8.00008 0 0 0 8-8v-44.686l45.65723-45.65722a8.00125 8.00125 0 0 0 1.73339-8.7183zm-61.04785 45.40478a8.00035 8.00035 0 0 0 -2.34277 5.65674v40h-144v-120h144v32a8.00008 8.00008 0 0 0 8 8h28.68652z"/><path d="m154.34277 394.34326-24.00195 24.0022a23.96838 23.96838 0 0 0 -20.68164 0l-8.00439-8.00488a24 24 0 1 0 -43.30958-.00013l-16.00244 16.00281 11.31446 11.31348 16.002-16.0022a23.96838 23.96838 0 0 0 20.68164 0l8.00439 8.00488a24 24 0 1 0 43.30958.00013l24.00244-24.00281zm-74.34277 13.65674a8 8 0 1 1 8-8 8.00917 8.00917 0 0 1 -8 8zm40 40a8 8 0 1 1 8-8 8.00917 8.00917 0 0 1 -8 8z"/></g></svg>