<?xml version="1.0" encoding="iso-8859-1"?>
<!-- Generator: Adobe Illustrator 19.0.0, SVG Export Plug-In . SVG Version: 6.00 Build 0)  -->
<svg version="1.1" id="Capa_1" xmlns="http://www.w3.org/2000/svg" xmlns:xlink="http://www.w3.org/1999/xlink" x="0px" y="0px"
	 viewBox="0 0 496 496" style="enable-background:new 0 0 496 496;" xml:space="preserve">
<path style="fill:#FFCB57;" d="M349.584,345.864c-2.664-12.288-7.528-23.744-14.12-33.992l8.704-17.408l-22.624-22.624
	l-17.408,8.704c-10.248-6.592-21.704-11.456-33.992-14.12L264,248h-32l-6.136,18.416c-12.288,2.664-23.744,7.528-33.992,14.12
	l-17.408-8.704l-22.624,22.624l8.704,17.408c-6.592,10.248-11.456,21.704-14.12,33.992L128,352v16h80c0-22.088,17.912-40,40-40
	s40,17.912,40,40h80v-16L349.584,345.864z"/>
<g>
	<path style="fill:#3F3A34;" d="M0,408c0,22.056,17.944,40,40,40h112v32h-32v16h256v-16h-32v-32h112c22.056,0,40-17.944,40-40v-24H0
		V408z M328,480H168v-32h160V480z M16,400h464v8c0,13.232-10.768,24-24,24H40c-13.232,0-24-10.768-24-24V400z"/>
	<path style="fill:#3F3A34;" d="M456,72h-56v16h56c13.232,0,24,10.768,24,24v256h16V112C496,89.944,478.056,72,456,72z"/>
	<path style="fill:#3F3A34;" d="M16,112c0-13.232,10.768-24,24-24h56V72H40C17.944,72,0,89.944,0,112v256h16V112z"/>
	<path style="fill:#3F3A34;" d="M376,368v-21.768l-19.672-6.56c-2.576-9.88-6.504-19.336-11.728-28.208l9.296-18.584l-30.784-30.784
		l-18.584,9.296c-8.872-5.208-18.328-9.144-28.2-11.728L269.768,240H226.24l-6.56,19.664c-9.872,2.584-19.328,6.512-28.2,11.728
		l-18.584-9.296l-30.784,30.784l9.296,18.584c-5.216,8.872-9.152,18.328-11.728,28.208l-19.68,6.56V368h16v-10.232l17.264-5.76
		l0.968-4.448c2.416-11.128,6.808-21.672,13.032-31.36l2.472-3.832l-8.168-16.328l14.472-14.472l16.32,8.168l3.832-2.464
		c9.688-6.232,20.24-10.616,31.368-13.032l4.448-0.968l5.76-17.272h20.472l5.76,17.264l4.448,0.968
		c11.128,2.416,21.68,6.808,31.368,13.032l3.832,2.464l16.32-8.168l14.472,14.472l-8.168,16.328l2.472,3.832
		c6.224,9.688,10.616,20.24,13.032,31.36l0.968,4.448L360,357.768V368H376z"/>
	<path style="fill:#3F3A34;" d="M328,368c0-44.112-35.888-80-80-80s-80,35.888-80,80h16c0-35.288,28.712-64,64-64s64,28.712,64,64
		H328z"/>
	<path style="fill:#3F3A34;" d="M248,320c-26.472,0-48,21.528-48,48h16c0-17.648,14.352-32,32-32s32,14.352,32,32h16
		C296,341.528,274.472,320,248,320z"/>
	<path style="fill:#3F3A34;" d="M128,16h192v56h64V52.688L331.312,0H112v296h16V16z M336,27.312L364.688,56H336V27.312z"/>
	<rect x="368" y="88" style="fill:#3F3A34;" width="16" height="208"/>
	<polygon style="fill:#3F3A34;" points="304,48 304,32 144,32 144,128 352,128 352,88 336,88 336,112 160,112 160,48 	"/>
</g>
<g>
	<rect x="144" y="144" style="fill:#E56565;" width="16" height="16"/>
	<rect x="176" y="144" style="fill:#E56565;" width="176" height="16"/>
	<rect x="336" y="208" style="fill:#E56565;" width="16" height="16"/>
	<rect x="144" y="208" style="fill:#E56565;" width="176" height="16"/>
	<rect x="144" y="176" style="fill:#E56565;" width="208" height="16"/>
</g>
<g>
</g>
<g>
</g>
<g>
</g>
<g>
</g>
<g>
</g>
<g>
</g>
<g>
</g>
<g>
</g>
<g>
</g>
<g>
</g>
<g>
</g>
<g>
</g>
<g>
</g>
<g>
</g>
<g>
</g>
</svg>
