<svg id="Layer_1" enable-background="new 0 0 256 256" height="512" viewBox="0 0 256 256" width="512" xmlns="http://www.w3.org/2000/svg"><circle cx="86.07" cy="192.418" fill="#f16c7a" r="8"/><path d="m86.07 182.918c-5.238 0-9.5 4.262-9.5 9.5s4.262 9.5 9.5 9.5 9.5-4.262 9.5-9.5-4.262-9.5-9.5-9.5zm0 16c-3.584 0-6.5-2.916-6.5-6.5s2.916-6.5 6.5-6.5 6.5 2.916 6.5 6.5-2.916 6.5-6.5 6.5z" fill="#3a312a"/><circle cx="118.07" cy="157.418" fill="#87796f" r="8"/><path d="m118.07 147.918c-5.238 0-9.5 4.262-9.5 9.5s4.262 9.5 9.5 9.5 9.5-4.262 9.5-9.5-4.262-9.5-9.5-9.5zm0 16c-3.584 0-6.5-2.916-6.5-6.5s2.916-6.5 6.5-6.5 6.5 2.916 6.5 6.5-2.916 6.5-6.5 6.5z" fill="#3a312a"/><circle cx="63.07" cy="153.418" fill="#d7e057" r="8"/><path d="m63.07 143.918c-5.238 0-9.5 4.262-9.5 9.5s4.262 9.5 9.5 9.5 9.5-4.262 9.5-9.5-4.262-9.5-9.5-9.5zm0 16c-3.584 0-6.5-2.916-6.5-6.5s2.916-6.5 6.5-6.5 6.5 2.916 6.5 6.5-2.916 6.5-6.5 6.5z" fill="#3a312a"/><circle cx="83.07" cy="118.418" fill="#8ac6dd" r="8"/><g fill="#3a312a"><path d="m83.07 108.918c-5.238 0-9.5 4.262-9.5 9.5s4.262 9.5 9.5 9.5 9.5-4.262 9.5-9.5-4.262-9.5-9.5-9.5zm0 16c-3.584 0-6.5-2.916-6.5-6.5s2.916-6.5 6.5-6.5 6.5 2.916 6.5 6.5-2.916 6.5-6.5 6.5z"/><path d="m238.944 226.543h-209.5v-210.5c0-.829-.671-1.5-1.5-1.5s-1.5.671-1.5 1.5v212c0 .829.671 1.5 1.5 1.5h211c.828 0 1.5-.671 1.5-1.5s-.672-1.5-1.5-1.5z"/><path d="m27.945 226.543c-.829 0-1.5.671-1.5 1.5v11.75c0 .829.671 1.5 1.5 1.5s1.5-.671 1.5-1.5v-11.75c0-.829-.672-1.5-1.5-1.5z"/><path d="m61.415 226.543c-.829 0-1.5.671-1.5 1.5v11.75c0 .829.671 1.5 1.5 1.5s1.5-.671 1.5-1.5v-11.75c0-.829-.672-1.5-1.5-1.5z"/><path d="m94.875 226.543c-.829 0-1.5.671-1.5 1.5v11.75c0 .829.671 1.5 1.5 1.5s1.5-.671 1.5-1.5v-11.75c0-.829-.671-1.5-1.5-1.5z"/><path d="m128.345 226.543c-.829 0-1.5.671-1.5 1.5v11.75c0 .829.671 1.5 1.5 1.5.828 0 1.5-.671 1.5-1.5v-11.75c0-.829-.672-1.5-1.5-1.5z"/><path d="m161.805 226.543c-.828 0-1.5.671-1.5 1.5v11.75c0 .829.672 1.5 1.5 1.5s1.5-.671 1.5-1.5v-11.75c0-.829-.672-1.5-1.5-1.5z"/><path d="m195.274 226.543c-.828 0-1.5.671-1.5 1.5v11.75c0 .829.672 1.5 1.5 1.5s1.5-.671 1.5-1.5v-11.75c0-.829-.672-1.5-1.5-1.5z"/><path d="m228.734 226.543c-.828 0-1.5.671-1.5 1.5v11.75c0 .829.672 1.5 1.5 1.5s1.5-.671 1.5-1.5v-11.75c0-.829-.671-1.5-1.5-1.5z"/><path d="m27.945 226.543h-11.75c-.829 0-1.5.671-1.5 1.5s.671 1.5 1.5 1.5h11.75c.829 0 1.5-.671 1.5-1.5s-.672-1.5-1.5-1.5z"/><path d="m27.945 193.073h-11.75c-.829 0-1.5.671-1.5 1.5s.671 1.5 1.5 1.5h11.75c.829 0 1.5-.671 1.5-1.5 0-.828-.672-1.5-1.5-1.5z"/><path d="m27.945 159.613h-11.75c-.829 0-1.5.671-1.5 1.5s.671 1.5 1.5 1.5h11.75c.829 0 1.5-.671 1.5-1.5s-.672-1.5-1.5-1.5z"/><path d="m27.945 126.143h-11.75c-.829 0-1.5.671-1.5 1.5s.671 1.5 1.5 1.5h11.75c.829 0 1.5-.671 1.5-1.5 0-.828-.672-1.5-1.5-1.5z"/><path d="m27.945 92.683h-11.75c-.829 0-1.5.671-1.5 1.5s.671 1.5 1.5 1.5h11.75c.829 0 1.5-.671 1.5-1.5s-.672-1.5-1.5-1.5z"/><path d="m27.945 59.213h-11.75c-.829 0-1.5.671-1.5 1.5s.671 1.5 1.5 1.5h11.75c.829 0 1.5-.671 1.5-1.5s-.672-1.5-1.5-1.5z"/><path d="m27.945 25.753h-11.75c-.829 0-1.5.671-1.5 1.5s.671 1.5 1.5 1.5h11.75c.829 0 1.5-.671 1.5-1.5s-.672-1.5-1.5-1.5z"/></g><path d="m227.039 26.138c-.974 11.564-13.024 13.39-13.024 13.39 10.347.487 12.925 14.059 12.925 14.059.221-9.677 13.321-14.202 13.321-14.202-9.814-.588-13.222-13.247-13.222-13.247z" fill="#d7e057"/><path d="m240.351 37.887c-8.604-.514-11.832-12.024-11.863-12.14-.19-.702-.849-1.159-1.584-1.102-.725.066-1.298.642-1.359 1.367-.859 10.215-11.313 11.963-11.754 12.032-.763.115-1.313.79-1.273 1.561.04.77.657 1.384 1.428 1.421 9.027.425 11.498 12.719 11.521 12.843.138.711.76 1.217 1.473 1.217.042 0 .084-.001.126-.005.764-.064 1.357-.693 1.375-1.46.194-8.509 12.191-12.777 12.313-12.819.676-.235 1.092-.915.994-1.623-.101-.708-.684-1.249-1.397-1.292zm-13.567 10.346c-1.357-3.13-3.709-6.907-7.587-8.877 2.931-1.405 6.409-3.913 8.202-8.273 1.551 3.071 4.2 6.88 8.334 8.722-3.006 1.641-6.923 4.407-8.949 8.428z" fill="#3a312a"/><path d="m205.34 43.119c-.689 8.179-9.212 9.47-9.212 9.47 7.318.344 9.142 9.944 9.142 9.944.156-6.844 9.422-10.045 9.422-10.045-6.941-.415-9.352-9.369-9.352-9.369z" fill="#d7e057"/><path d="m214.782 50.99c-5.767-.345-7.972-8.185-7.993-8.264-.19-.702-.866-1.161-1.582-1.102-.726.065-1.3.642-1.361 1.368-.579 6.871-7.647 8.066-7.942 8.113-.763.115-1.313.79-1.273 1.56s.657 1.384 1.428 1.421c6.035.284 7.724 8.644 7.739 8.726.136.712.759 1.22 1.473 1.22.041 0 .083-.001.125-.005.765-.063 1.358-.694 1.376-1.461.13-5.709 8.331-8.634 8.412-8.662.676-.234 1.093-.913.996-1.622-.099-.707-.684-1.249-1.398-1.292zm-9.585 6.796c-.924-1.886-2.34-3.947-4.447-5.28 1.855-1.042 3.697-2.63 4.871-4.917 1.057 1.873 2.654 3.954 4.941 5.224-1.85 1.101-3.989 2.74-5.365 4.973z" fill="#3a312a"/><path d="m205.34 16.461c-.689 8.179-9.212 9.471-9.212 9.471 7.318.344 9.142 9.944 9.142 9.944.156-6.845 9.422-10.045 9.422-10.045-6.941-.416-9.352-9.37-9.352-9.37z" fill="#d7e057"/><path d="m214.782 24.333c-5.767-.345-7.972-8.185-7.993-8.265-.19-.702-.866-1.16-1.582-1.102-.726.065-1.3.642-1.361 1.368-.579 6.871-7.647 8.067-7.942 8.114-.763.115-1.313.79-1.273 1.561.04.77.657 1.384 1.428 1.421 6.035.284 7.724 8.644 7.739 8.726.136.713.759 1.22 1.473 1.22.041 0 .083-.001.125-.005.765-.063 1.358-.694 1.376-1.461.13-5.71 8.331-8.634 8.412-8.662.676-.234 1.093-.913.996-1.622-.099-.709-.684-1.25-1.398-1.293zm-9.585 6.795c-.924-1.885-2.34-3.947-4.447-5.28 1.855-1.041 3.697-2.63 4.871-4.917 1.057 1.874 2.654 3.955 4.941 5.224-1.849 1.101-3.989 2.741-5.365 4.973z" fill="#3a312a"/><path d="m209.88 208.107-101.75-101.75c-.586-.586-1.535-.586-2.121 0s-.586 1.536 0 2.121l101.75 101.75c.293.293.677.44 1.06.44s.768-.146 1.061-.44c.586-.585.586-1.535 0-2.121z" fill="#3a312a"/><path d="m99.304 97.531-51.924-51.924c-.586-.586-1.535-.586-2.121 0-.586.585-.586 1.536 0 2.121l51.923 51.924c.293.293.677.44 1.061.44s.768-.146 1.061-.44c.586-.585.586-1.535 0-2.121z" fill="#3a312a"/><path d="m120.07 67.418h16v16h-16z" fill="#d7e057"/><path d="m136.069 65.918h-16c-.829 0-1.5.671-1.5 1.5v16c0 .829.671 1.5 1.5 1.5h16c.828 0 1.5-.671 1.5-1.5v-16c0-.829-.672-1.5-1.5-1.5zm-1.5 16h-13v-13h13z" fill="#3a312a"/><path d="m211.07 106.418h16v16h-16z" fill="#87796f"/><path d="m227.069 104.918h-16c-.828 0-1.5.671-1.5 1.5v16c0 .829.672 1.5 1.5 1.5h16c.828 0 1.5-.671 1.5-1.5v-16c0-.829-.672-1.5-1.5-1.5zm-1.5 16h-13v-13h13z" fill="#3a312a"/><path d="m171.07 126.418h16v16h-16z" fill="#f16c7a"/><path d="m187.069 124.918h-16c-.828 0-1.5.671-1.5 1.5v16c0 .829.672 1.5 1.5 1.5h16c.828 0 1.5-.671 1.5-1.5v-16c0-.829-.672-1.5-1.5-1.5zm-1.5 16h-13v-13h13z" fill="#3a312a"/><path d="m161.07 82.418h16v16h-16z" fill="#8ac6dd"/><path d="m177.069 80.918h-16c-.828 0-1.5.671-1.5 1.5v16c0 .829.672 1.5 1.5 1.5h16c.828 0 1.5-.671 1.5-1.5v-16c0-.829-.672-1.5-1.5-1.5zm-1.5 16h-13v-13h13z" fill="#3a312a"/></svg>