<svg id="Layer_1" enable-background="new 0 0 256 256" height="512" viewBox="0 0 256 256" width="512" xmlns="http://www.w3.org/2000/svg"><path d="m222.239 16.043h-188.789c-9.447 0-17.106 7.659-17.106 17.106v130.289c0 9.447 7.658 17.105 17.106 17.105h188.789c9.447 0 17.106-7.658 17.106-17.105v-130.29c0-9.447-7.658-17.105-17.106-17.105z" fill="#87796f"/><path d="m222.239 14.543h-188.789c-10.259 0-18.605 8.346-18.605 18.605v130.289c0 10.259 8.346 18.605 18.605 18.605h188.789c10.259 0 18.605-8.346 18.605-18.605v-130.289c.001-10.259-8.346-18.605-18.605-18.605zm15.606 148.895c0 8.605-7.001 15.605-15.605 15.605h-188.79c-8.605 0-15.605-7-15.605-15.605v-130.29c0-8.605 7-15.605 15.605-15.605h188.789c8.605 0 15.605 7 15.605 15.605v130.29z" fill="#3a312a"/><path d="m214.815 28.547h-173.94c-6.58 0-11.92 5.33-11.92 11.92v115.66c0 6.58 5.34 11.92 11.92 11.92h173.94c6.58 0 11.92-5.34 11.92-11.92v-115.659c0-6.591-5.34-11.921-11.92-11.921z" fill="#fce8cb"/><path d="m214.815 27.047h-128.637c-.829 0-1.5.671-1.5 1.5s.671 1.5 1.5 1.5h128.637c5.746 0 10.42 4.675 10.42 10.42v115.66c0 5.746-4.674 10.42-10.42 10.42h-173.94c-5.746 0-10.42-4.674-10.42-10.42v-115.659c0-5.746 4.674-10.42 10.42-10.42h32.638c.829 0 1.5-.671 1.5-1.5s-.671-1.5-1.5-1.5h-32.638c-7.4 0-13.42 6.021-13.42 13.42v115.66c0 7.4 6.02 13.42 13.42 13.42h173.94c7.4 0 13.42-6.02 13.42-13.42v-115.66c0-7.4-6.02-13.421-13.42-13.421z" fill="#3a312a"/><path d="m113.532 180.543h28.625v35.593h-28.625z" fill="#87796f"/><path d="m142.157 179.043h-28.625c-.829 0-1.5.671-1.5 1.5v35.593c0 .829.671 1.5 1.5 1.5h28.625c.829 0 1.5-.671 1.5-1.5v-35.593c0-.829-.671-1.5-1.5-1.5zm-1.5 35.593h-25.625v-32.593h25.625z" fill="#3a312a"/><path d="m148.141 216.136h-40.593c-12.927 0-23.407 10.479-23.407 23.406h37.584 13.57 36.252c.001-12.926-10.479-23.406-23.406-23.406z" fill="#87796f"/><path d="m148.141 214.636h-40.593c-13.733 0-24.907 11.173-24.907 24.907 0 .829.671 1.5 1.5 1.5h37.584c.829 0 1.5-.671 1.5-1.5s-.671-1.5-1.5-1.5h-36.033c.773-11.382 10.281-20.407 21.856-20.407h40.593c11.575 0 21.082 9.024 21.856 20.407h-34.701c-.829 0-1.5.671-1.5 1.5s.671 1.5 1.5 1.5h36.252c.829 0 1.5-.671 1.5-1.5 0-13.733-11.173-24.907-24.907-24.907z" fill="#3a312a"/><path d="m214.815 30.043h-15c5.74 0 10.42 4.67 10.42 10.42v115.66c0 5.75-4.68 10.42-10.42 10.42h15c5.74 0 10.42-4.67 10.42-10.42v-115.66c0-5.75-4.68-10.42-10.42-10.42z" fill="#decaad"/><path d="m47.516 203.377c-.974 11.564-13.024 13.39-13.024 13.39 10.346.487 12.925 14.059 12.925 14.059.221-9.677 13.321-14.202 13.321-14.202-9.814-.588-13.222-13.247-13.222-13.247z" fill="#d6df58"/><path d="m60.828 215.126c-8.605-.515-11.832-12.024-11.864-12.141-.191-.703-.861-1.167-1.583-1.102-.725.066-1.298.642-1.359 1.367-.86 10.215-11.314 11.963-11.754 12.032-.763.115-1.313.79-1.273 1.561.04.77.657 1.384 1.427 1.421 9.028.425 11.499 12.719 11.523 12.843.137.711.759 1.217 1.472 1.217.042 0 .084-.001.127-.005.764-.064 1.356-.693 1.374-1.459.194-8.509 12.191-12.777 12.313-12.819.675-.235 1.092-.914.994-1.623-.1-.708-.683-1.249-1.397-1.292zm-13.566 10.346c-1.357-3.13-3.709-6.907-7.587-8.876 2.931-1.405 6.409-3.913 8.202-8.273 1.551 3.071 4.2 6.88 8.334 8.723-3.008 1.639-6.923 4.404-8.949 8.426z" fill="#3a312a"/><path d="m25.817 220.357c-.689 8.179-9.212 9.471-9.212 9.471 7.318.344 9.142 9.944 9.142 9.944.156-6.845 9.422-10.046 9.422-10.046-6.941-.414-9.352-9.369-9.352-9.369z" fill="#d6df58"/><path d="m35.259 228.229c-5.766-.345-7.972-8.185-7.994-8.264-.19-.702-.856-1.164-1.582-1.102-.726.065-1.299.642-1.36 1.368-.579 6.871-7.646 8.067-7.942 8.114-.763.115-1.314.79-1.273 1.561.04.77.657 1.384 1.428 1.421 6.035.284 7.723 8.644 7.739 8.726.135.713.759 1.22 1.472 1.22.042 0 .083-.001.125-.005.765-.063 1.358-.694 1.376-1.461.13-5.709 8.332-8.634 8.413-8.662.677-.234 1.094-.913.996-1.622-.099-.71-.683-1.251-1.398-1.294zm-9.585 6.795c-.924-1.886-2.34-3.947-4.447-5.28 1.856-1.041 3.697-2.63 4.871-4.917 1.057 1.874 2.654 3.955 4.941 5.224-1.849 1.102-3.989 2.741-5.365 4.973z" fill="#3a312a"/><path d="m25.817 193.7c-.689 8.179-9.212 9.471-9.212 9.471 7.318.345 9.142 9.944 9.142 9.944.156-6.845 9.422-10.045 9.422-10.045-6.941-.416-9.352-9.37-9.352-9.37z" fill="#d6df58"/><path d="m35.259 201.572c-5.739-.343-7.952-8.113-7.993-8.263-.189-.703-.858-1.167-1.582-1.104-.726.065-1.3.642-1.361 1.368-.579 6.871-7.646 8.067-7.942 8.114-.763.115-1.313.79-1.273 1.561.04.77.657 1.384 1.427 1.421 6.036.284 7.724 8.644 7.739 8.726.135.713.759 1.22 1.472 1.22.042 0 .083-.001.125-.005.765-.063 1.358-.694 1.376-1.461.13-5.709 8.331-8.634 8.413-8.662.676-.234 1.094-.913.996-1.622s-.682-1.25-1.397-1.293zm-9.585 6.795c-.924-1.885-2.34-3.947-4.447-5.279 1.856-1.042 3.697-2.63 4.871-4.917 1.057 1.874 2.654 3.955 4.941 5.224-1.85 1.1-3.989 2.739-5.365 4.972z" fill="#3a312a"/><path d="m92.519 131.407h17.126v11.871h-17.126z" fill="#f16c7a"/><path d="m109.645 129.908h-17.126c-.829 0-1.5.671-1.5 1.5v11.871c0 .829.671 1.5 1.5 1.5h17.126c.829 0 1.5-.671 1.5-1.5v-11.871c0-.829-.671-1.5-1.5-1.5zm-1.5 11.871h-14.126v-8.871h14.126z" fill="#3a312a"/><path d="m123.973 116.742h19.638v26.537h-19.638z" fill="#d7e057"/><path d="m143.611 115.242h-19.638c-.829 0-1.5.671-1.5 1.5v26.537c0 .829.671 1.5 1.5 1.5h19.638c.829 0 1.5-.671 1.5-1.5v-26.537c0-.829-.671-1.5-1.5-1.5zm-1.5 26.537h-16.638v-23.537h16.638z" fill="#3a312a"/><path d="m155.427 103.817h19.638v39.462h-19.638z" fill="#f16c7a"/><path d="m175.065 102.317h-19.638c-.829 0-1.5.671-1.5 1.5v39.461c0 .829.671 1.5 1.5 1.5h19.638c.829 0 1.5-.671 1.5-1.5v-39.461c0-.828-.671-1.5-1.5-1.5zm-1.5 39.462h-16.638v-36.461h16.638z" fill="#3a312a"/><path d="m186.881 90.893h19.638v52.386h-19.638z" fill="#d7e057"/><path d="m206.519 89.393h-19.638c-.829 0-1.5.671-1.5 1.5v52.386c0 .829.671 1.5 1.5 1.5h19.638c.829 0 1.5-.671 1.5-1.5v-52.386c0-.829-.672-1.5-1.5-1.5zm-1.5 52.386h-16.638v-49.386h16.638z" fill="#3a312a"/><path d="m204.107 60.368-18.46-5.996c-1.75-.569-3.628.389-4.197 2.139-.568 1.749.39 3.628 2.139 4.196l10.778 3.501-99.975 51.194c-1.637.839-2.284 2.845-1.446 4.482.589 1.151 1.756 1.813 2.967 1.813.511 0 1.03-.118 1.516-.367l100.009-51.212-3.524 10.848c-.568 1.749.39 3.628 2.139 4.196.342.111.689.164 1.03.164 1.404 0 2.71-.895 3.167-2.303l5.996-18.46c.568-1.748-.39-3.626-2.139-4.195z" fill="#8ac6dd"/><path d="m207.381 61.342c-.586-1.149-1.584-2.002-2.811-2.4l-18.459-5.996c-1.228-.4-2.538-.297-3.687.29-1.149.586-2.001 1.584-2.401 2.812-.822 2.533.569 5.263 3.103 6.086l7.343 2.385-96.76 49.548c-1.149.588-1.999 1.588-2.396 2.816-.396 1.228-.291 2.537.297 3.685.831 1.622 2.479 2.629 4.302 2.629.759 0 1.52-.184 2.199-.532l96.777-49.557-2.402 7.395c-.822 2.533.569 5.263 3.102 6.086.484.158.986.237 1.494.237 2.099 0 3.945-1.342 4.594-3.339l5.996-18.46c.399-1.226.295-2.535-.291-3.685zm-2.562 2.759-5.996 18.46c-.305.94-1.36 1.483-2.307 1.175-.96-.312-1.487-1.346-1.175-2.306l3.524-10.848c.188-.578.008-1.211-.454-1.605s-1.118-.471-1.657-.193l-100.008 51.212c-.889.454-2.018.078-2.464-.794-.223-.436-.263-.931-.113-1.396s.473-.844.908-1.067l99.975-51.194c.54-.276.86-.85.812-1.454s-.455-1.12-1.032-1.308l-10.778-3.501c-.96-.312-1.487-1.346-1.176-2.306.152-.466.475-.845.911-1.067.261-.133.543-.2.828-.2.19 0 .382.03.569.091l18.46 5.996c.465.151.843.474 1.065.909.22.436.259.931.108 1.396z" fill="#3a312a"/><path d="m60.193 51.348c-7.135 5.164-10.956 13.204-11.021 21.383l26.647.195 13.287-23.091c-8.813-5.065-20.145-4.833-28.913 1.513z" fill="#8ac5dc"/><path d="m90.555 49.444c-.103-.384-.356-.711-.701-.91-9.594-5.514-21.581-4.885-30.54 1.599-7.219 5.225-11.571 13.668-11.642 22.586-.003.398.152.781.431 1.064s.66.444 1.058.447l26.647.195h.011c.537 0 1.032-.287 1.3-.752l13.287-23.091c.199-.344.252-.754.149-1.138zm-15.599 21.975-24.227-.178c.506-7.406 4.3-14.305 10.343-18.678 7.598-5.5 17.632-6.285 25.963-2.137z" fill="#3a312a"/><path d="m49.172 72.731c-.049 5.489 1.594 11.036 5.059 15.823 4.482 6.193 11.131 9.887 18.157 10.798l3.431-26.426z" fill="#d6df58"/><path d="m76.95 71.94c-.282-.324-.69-.511-1.119-.514l-26.648-.196h-.011c-.823 0-1.493.663-1.5 1.487-.053 6.032 1.795 11.813 5.344 16.716 4.595 6.348 11.406 10.398 19.18 11.406.065.008.13.012.195.012.742 0 1.387-.551 1.485-1.307l3.431-26.426c.055-.425-.075-.854-.357-1.178zm-5.851 25.688c-6.326-1.194-11.843-4.69-15.653-9.954-2.876-3.973-4.501-8.589-4.744-13.433l23.411.171z" fill="#3a312a"/><path d="m98.578 59.09-22.759 13.836-3.431 26.426c.132.019.263.033.395.05 6.379.733 13.041-.826 18.652-4.887 11.338-8.208 14.306-23.676 7.143-35.425z" fill="#ef6d7a"/><path d="m99.859 58.31c-.431-.707-1.352-.931-2.06-.501l-22.759 13.835c-.389.236-.649.637-.708 1.088l-3.431 26.426c-.106.812.458 1.557 1.268 1.677l.443.056c1.077.124 2.153.185 3.226.185 5.892 0 11.646-1.851 16.477-5.348 11.811-8.548 15.125-24.984 7.544-37.418zm-9.303 34.988c-4.8 3.474-10.62 5.129-16.482 4.717l3.14-24.182 20.825-12.66c5.79 10.929 2.661 24.784-7.483 32.125z" fill="#3a312a"/><path d="m97.252 57.192c-2.236-3.106-5.032-5.566-8.158-7.345l-13.37 23.009 22.684-13.91c-.358-.595-.744-1.18-1.156-1.754z" fill="#87796f"/><g fill="#3a312a"><path d="m99.694 58.174c-.378-.629-.79-1.254-1.225-1.857-2.313-3.214-5.217-5.829-8.633-7.772-.715-.406-1.624-.161-2.038.55l-13.37 23.009c-.345.594-.243 1.347.249 1.827.288.281.667.427 1.048.427.27 0 .541-.073.784-.221l22.684-13.91c.701-.432.925-1.348.501-2.053zm-19.686 10.297 9.613-16.545c2.494 1.628 4.647 3.689 6.413 6.143.095.132.189.266.283.401z"/><path d="m80.171 113.779h-31c-.829 0-1.5.671-1.5 1.5s.671 1.5 1.5 1.5h31c.829 0 1.5-.671 1.5-1.5s-.671-1.5-1.5-1.5z"/><path d="m80.171 127.779h-31c-.829 0-1.5.671-1.5 1.5s.671 1.5 1.5 1.5h31c.829 0 1.5-.671 1.5-1.5s-.671-1.5-1.5-1.5z"/><path d="m80.171 141.779h-31c-.829 0-1.5.671-1.5 1.5s.671 1.5 1.5 1.5h31c.829 0 1.5-.671 1.5-1.5s-.671-1.5-1.5-1.5z"/></g></svg>