<svg id="Layer_1" enable-background="new 0 0 256 256" height="512" viewBox="0 0 256 256" width="512" xmlns="http://www.w3.org/2000/svg"><path d="m226.221 26.134c-.974 11.564-13.025 13.389-13.025 13.389 10.347.487 12.925 14.059 12.925 14.059.221-9.677 13.321-14.202 13.321-14.202-9.813-.587-13.221-13.246-13.221-13.246z" fill="#d7e057"/><path d="m239.532 37.882c-8.604-.514-11.832-12.024-11.863-12.14-.19-.702-.848-1.164-1.584-1.102-.725.066-1.298.642-1.359 1.367-.859 10.215-11.313 11.963-11.754 12.032-.763.115-1.313.79-1.273 1.561.04.77.657 1.384 1.428 1.421 9.027.425 11.498 12.719 11.521 12.843.138.711.76 1.217 1.473 1.217.042 0 .084-.001.126-.005.764-.064 1.357-.693 1.375-1.459.194-8.509 12.191-12.777 12.313-12.819.676-.235 1.092-.915.994-1.623-.1-.709-.683-1.25-1.397-1.293zm-13.566 10.347c-1.356-3.13-3.709-6.907-7.587-8.876 2.931-1.405 6.409-3.913 8.202-8.273 1.551 3.071 4.2 6.88 8.334 8.722-3.007 1.639-6.923 4.406-8.949 8.427z" fill="#3a312a"/><path d="m204.522 43.114c-.689 8.179-9.212 9.47-9.212 9.47 7.318.344 9.142 9.944 9.142 9.944.156-6.844 9.422-10.045 9.422-10.045-6.941-.415-9.352-9.369-9.352-9.369z" fill="#d7e057"/><path d="m213.964 50.986c-5.767-.345-7.972-8.185-7.993-8.264-.19-.702-.857-1.158-1.582-1.102-.726.065-1.3.642-1.361 1.368-.579 6.871-7.646 8.066-7.942 8.113-.763.115-1.313.79-1.273 1.561.04.77.657 1.384 1.428 1.421 6.035.284 7.724 8.644 7.739 8.726.136.712.759 1.22 1.473 1.22.041 0 .083-.001.125-.005.765-.063 1.358-.694 1.376-1.461.13-5.709 8.331-8.634 8.412-8.662.676-.234 1.093-.913.996-1.622-.099-.709-.684-1.25-1.398-1.293zm-9.585 6.795c-.924-1.886-2.34-3.947-4.447-5.28 1.855-1.042 3.697-2.63 4.871-4.917 1.057 1.874 2.654 3.955 4.941 5.224-1.85 1.102-3.989 2.741-5.365 4.973z" fill="#3a312a"/><path d="m204.522 16.457c-.689 8.179-9.212 9.471-9.212 9.471 7.318.344 9.142 9.944 9.142 9.944.156-6.845 9.422-10.045 9.422-10.045-6.941-.416-9.352-9.37-9.352-9.37z" fill="#d7e057"/><path d="m213.964 24.329c-5.767-.345-7.972-8.186-7.993-8.265-.19-.702-.857-1.165-1.582-1.102-.726.065-1.3.642-1.361 1.368-.579 6.871-7.646 8.067-7.942 8.114-.763.115-1.313.79-1.273 1.561.04.77.657 1.384 1.428 1.421 6.035.284 7.724 8.644 7.739 8.726.136.713.759 1.22 1.473 1.22.041 0 .083-.001.125-.005.765-.063 1.358-.694 1.376-1.461.13-5.709 8.331-8.634 8.412-8.662.676-.234 1.093-.913.996-1.622-.099-.709-.684-1.25-1.398-1.293zm-9.585 6.795c-.924-1.885-2.34-3.947-4.447-5.28 1.855-1.041 3.697-2.63 4.871-4.917 1.057 1.874 2.654 3.955 4.941 5.224-1.849 1.101-3.989 2.74-5.365 4.973z" fill="#3a312a"/><path d="m176.639 36.883c-.109-11.327-9.318-20.453-20.645-20.459l-118.884-.062c-11.413-.006-20.668 9.245-20.668 20.657v158.966c0 11.409 9.248 20.657 20.657 20.657h119.186c11.408 0 20.657-9.249 20.657-20.657v-127.498z" fill="#f16c7a"/><path d="m178.139 36.869c-.116-12.094-10.05-21.938-22.144-21.945l-118.884-.062h-.011c-5.916 0-11.479 2.303-15.663 6.486-4.188 4.186-6.494 9.751-6.494 15.671v38.958c0 .829.672 1.5 1.5 1.5s1.5-.671 1.5-1.5v-38.957c0-5.119 1.994-9.931 5.615-13.55 3.618-3.616 8.427-5.607 13.542-5.607h.01l118.884.062c10.457.005 19.046 8.517 19.146 18.974l.304 31.589v127.498c0 10.563-8.594 19.157-19.156 19.157h-119.188c-10.563 0-19.157-8.594-19.157-19.157v-106.76c0-.829-.672-1.5-1.5-1.5s-1.5.671-1.5 1.5v106.759c0 12.218 9.939 22.157 22.157 22.157h119.187c12.217 0 22.156-9.939 22.156-22.157v-127.512z" fill="#3a312a"/><path d="m147.807 39.352h-87.51c-11.526 0-20.854 9.328-20.854 20.854v158.583c0 11.526 9.328 20.854 20.854 20.854h118.792c11.525 0 20.854-9.329 20.854-20.854v-127.302z" fill="#f7e3c7"/><path d="m201.003 90.427-52.135-52.135c-.281-.281-.663-.439-1.061-.439h-87.51c-12.326 0-22.354 10.028-22.354 22.354v158.583c0 12.326 10.028 22.354 22.354 22.354h55.774c.828 0 1.5-.672 1.5-1.5s-.672-1.5-1.5-1.5h-55.774c-10.672 0-19.354-8.682-19.354-19.354v-158.584c0-10.672 8.683-19.354 19.354-19.354h86.89l51.256 51.256v126.681c0 10.672-8.682 19.354-19.354 19.354h-50.275c-.828 0-1.5.672-1.5 1.5s.672 1.5 1.5 1.5h50.275c12.326 0 22.354-10.027 22.354-22.354v-127.302c-.001-.398-.159-.779-.44-1.06z" fill="#3a312a"/><path d="m147.915 39.459v33.797c0 10.14 8.22 18.36 18.36 18.36h33.668v-.129z" fill="#f7e3c7"/><path d="m201.003 90.427-52.027-52.028c-.43-.429-1.075-.557-1.635-.325-.561.232-.926.779-.926 1.386v33.797c0 10.951 8.909 19.86 19.86 19.86h33.667c.828 0 1.5-.671 1.5-1.5v-.129c0-.399-.158-.78-.439-1.061zm-34.728-.31c-9.297 0-16.86-7.563-16.86-16.86v-30.176l47.035 47.036z" fill="#3a312a"/><path d="m175.143 36.895c-.1-10.45-8.69-18.96-19.15-18.97h-15c10.46.01 19.05 8.52 19.15 18.97l.12 12.79 15.14 15.15z" fill="#d34e5c"/><path d="m236.363 196.721h-1.419c-.832-3.636-2.281-7.036-4.234-10.083l1.044-1.044c1.203-1.203 1.203-3.153 0-4.356l-5.546-5.546c-1.203-1.203-3.153-1.203-4.356 0l-1.083 1.083c-3.041-1.916-6.427-3.333-10.044-4.14v-1.552c0-1.701-1.379-3.08-3.08-3.08h-7.843c-1.701 0-3.08 1.379-3.08 3.08v1.552c-1.917.516-7.002 2.224-10.044 4.14l-1.083-1.083c-1.203-1.203-3.153-1.203-4.356 0l-5.546 5.546c-1.203 1.203-1.203 3.153 0 4.356l1.044 1.044c-1.953 3.047-3.402 6.448-4.234 10.083h-1.419c-1.701 0-3.08 1.379-3.08 3.08v7.843c0 1.701 1.379 3.08 3.08 3.08h1.345c.8 3.68 2.232 7.125 4.177 10.213l-.914.914c-1.203 1.203-1.203 3.153 0 4.356l5.546 5.546c1.203 1.203 3.153 1.203 4.356 0l.874-.875c3.094 1.983 6.553 3.446 10.252 4.271v1.212c0 1.701 1.379 3.08 3.08 3.08h7.843c1.701 0 3.08-1.379 3.08-3.08v-1.212c3.699-.825 7.158-2.288 10.253-4.271l.874.875c1.203 1.203 3.153 1.203 4.356 0l5.546-5.546c1.203-1.203 1.203-3.153 0-4.356l-.914-.914c1.946-3.088 3.377-6.533 4.177-10.213h1.345c1.701 0 3.08-1.379 3.08-3.08v-7.843c.003-1.701-1.376-3.08-3.077-3.08zm-32.64 23.015c-8.844 0-16.014-7.17-16.014-16.014s7.17-16.014 16.014-16.014 16.014 7.169 16.014 16.014-7.17 16.014-16.014 16.014z" fill="#d7e057"/><path d="m236.362 195.221h-.245c-.783-2.936-1.959-5.738-3.509-8.36l.206-.206c.865-.865 1.342-2.016 1.342-3.238 0-1.224-.477-2.374-1.342-3.238l-5.546-5.548c-1.785-1.783-4.691-1.784-6.479.001l-.251.252c-2.61-1.517-5.398-2.667-8.314-3.428v-.372c0-2.525-2.055-4.58-4.58-4.58h-7.843c-2.525 0-4.58 2.055-4.58 4.58v.429c-2.012.623-5.548 1.868-8.303 3.383l-.264-.265c-1.787-1.783-4.692-1.784-6.478.001l-5.546 5.546c-.865.865-1.342 2.016-1.342 3.239s.477 2.373 1.342 3.238l.206.206c-1.55 2.622-2.726 5.425-3.51 8.36h-.245c-2.525 0-4.58 2.055-4.58 4.58v7.844c0 2.525 2.055 4.58 4.58 4.58h.159c.761 2.978 1.925 5.822 3.472 8.484l-.082.081c-.865.865-1.342 2.016-1.342 3.239s.477 2.374 1.342 3.238l5.546 5.546c1.786 1.788 4.693 1.786 6.478 0l.036-.036c2.671 1.578 5.531 2.77 8.53 3.552v.033c0 2.525 2.055 4.58 4.58 4.58h7.843c2.525 0 4.58-2.055 4.58-4.58v-.033c3-.783 5.859-1.974 8.53-3.552l.036.036c1.784 1.786 4.691 1.788 6.478 0l5.546-5.545c.865-.865 1.342-2.016 1.342-3.239s-.477-2.374-1.342-3.238l-.083-.083c1.548-2.661 2.712-5.506 3.473-8.483h.158c2.525 0 4.58-2.055 4.58-4.58v-7.844c.001-2.526-2.053-4.58-4.579-4.58zm1.58 12.424c0 .871-.709 1.58-1.58 1.58h-1.345c-.706 0-1.316.492-1.466 1.182-.751 3.457-2.091 6.731-3.981 9.731-.373.593-.286 1.365.209 1.86l.914.915c.299.298.463.694.463 1.116s-.164.818-.463 1.117l-5.546 5.546c-.616.615-1.617.615-2.235 0l-.874-.874c-.496-.497-1.274-.582-1.87-.202-3.003 1.924-6.291 3.293-9.77 4.069-.687.152-1.174.762-1.174 1.464v1.213c0 .871-.709 1.58-1.58 1.58h-7.843c-.871 0-1.58-.709-1.58-1.58v-1.213c0-.702-.487-1.312-1.174-1.464-3.479-.776-6.766-2.146-9.77-4.069-.249-.159-.53-.237-.809-.237-.388 0-.772.149-1.062.439l-.874.874c-.618.615-1.619.615-2.235 0l-5.546-5.547c-.299-.298-.463-.694-.463-1.116s.164-.818.464-1.117l.913-.914c.494-.496.581-1.268.208-1.86-1.891-3-3.229-6.274-3.98-9.731-.149-.689-.76-1.182-1.466-1.182h-1.346c-.871 0-1.58-.709-1.58-1.58v-7.844c0-.871.709-1.58 1.58-1.58h1.419c.699 0 1.307-.483 1.462-1.165.782-3.416 2.14-6.648 4.035-9.609.381-.593.296-1.371-.202-1.869l-1.044-1.044c-.299-.299-.463-.695-.463-1.117s.164-.818.463-1.117l5.546-5.546c.614-.616 1.618-.617 2.234-.001l1.083 1.084c.496.494 1.268.581 1.861.209 2.839-1.789 7.805-3.47 9.634-3.962.655-.176 1.11-.77 1.11-1.448v-1.552c0-.871.709-1.58 1.58-1.58h7.843c.871 0 1.58.709 1.58 1.58v1.552c0 .702.487 1.312 1.174 1.464 3.397.758 6.618 2.085 9.57 3.946.594.372 1.365.285 1.861-.209l1.082-1.083c.614-.616 1.619-.617 2.235-.001l5.546 5.548c.299.298.463.694.463 1.116s-.164.818-.463 1.117l-1.044 1.044c-.498.498-.583 1.276-.202 1.869 1.896 2.961 3.253 6.194 4.034 9.608.155.683.763 1.166 1.462 1.166h1.419c.871 0 1.58.709 1.58 1.58v7.844zm-34.219-21.436c-9.657 0-17.514 7.856-17.514 17.514s7.856 17.514 17.514 17.514 17.514-7.856 17.514-17.514-7.857-17.514-17.514-17.514zm0 32.027c-8.003 0-14.514-6.511-14.514-14.514s6.511-14.514 14.514-14.514 14.514 6.511 14.514 14.514-6.511 14.514-14.514 14.514z" fill="#3a312a"/><path d="m97.416 88.876c-10.669 7.722-16.384 19.745-16.48 31.975l39.848.292 19.87-34.53c-13.18-7.574-30.126-7.227-43.238 2.263z" fill="#8ac5dc"/><path d="m142.102 86.223c-.104-.384-.355-.711-.701-.91-14.095-8.1-31.704-7.176-44.864 2.349-10.604 7.675-16.997 20.079-17.101 33.179-.003.398.152.781.432 1.064.279.283.659.444 1.058.447l39.848.292h.011c.536 0 1.032-.287 1.3-.752l19.87-34.53c.197-.345.25-.755.147-1.139zm-22.183 33.414-37.441-.274c.55-11.592 6.389-22.447 15.818-29.271 11.799-8.54 27.455-9.625 40.294-2.9z" fill="#3a312a"/><path d="m80.936 120.852c-.073 8.208 2.383 16.503 7.565 23.662 6.703 9.261 16.645 14.785 27.152 16.147l5.131-39.517z" fill="#d6df58"/><path d="m121.914 120.157c-.282-.324-.69-.511-1.12-.514l-39.848-.292h-.011c-.822 0-1.493.663-1.5 1.487-.078 8.861 2.637 17.351 7.851 24.554 6.749 9.325 16.755 15.275 28.174 16.755.065.009.13.013.194.013.742 0 1.388-.551 1.485-1.307l5.131-39.517c.056-.426-.074-.855-.356-1.179zm-7.553 38.795c-9.972-1.677-18.68-7.077-24.646-15.319-4.541-6.272-7.037-13.598-7.265-21.27l36.626.268z" fill="#3a312a"/><path d="m154.817 100.454-34.033 20.689-5.131 39.517c.197.029.393.05.591.074 9.54 1.097 19.501-1.236 27.892-7.309 16.954-12.271 21.392-35.403 10.681-52.971z" fill="#ef6d7a"/><path d="m156.098 99.673c-.43-.707-1.354-.93-2.06-.501l-34.034 20.689c-.389.236-.649.637-.708 1.088l-5.131 39.517c-.105.812.458 1.557 1.267 1.677.154.023.307.041.461.06l.181.021c1.582.182 3.163.271 4.739.271 8.655 0 17.106-2.719 24.203-7.855 17.35-12.557 22.218-36.702 11.082-54.967zm-12.842 52.538c-7.531 5.45-16.712 7.965-25.919 7.128l4.841-37.288 32.113-19.521c9.337 16.768 4.65 38.328-11.035 49.681z" fill="#3a312a"/><path d="m152.833 97.616c-3.343-4.645-7.525-8.323-12.199-10.983l-19.993 34.407 33.922-20.801c-.536-.891-1.113-1.765-1.73-2.623z" fill="#87796f"/><path d="m155.849 99.467c-.551-.917-1.155-1.834-1.798-2.727-3.396-4.718-7.66-8.558-12.675-11.411-.715-.406-1.625-.162-2.039.55l-19.992 34.407c-.346.594-.243 1.347.249 1.827.288.281.666.427 1.048.427.271 0 .542-.073.784-.221l33.921-20.801c.701-.43.925-1.346.502-2.051zm-30.924 17.187 16.244-27.957c4.088 2.546 7.598 5.835 10.446 9.794.3.416.59.838.869 1.262z" fill="#3a312a"/><path d="m79.242 173.003h82.07v17.25h-82.07z" fill="#8ac5dc"/><path d="m161.313 171.503h-82.07c-.828 0-1.5.672-1.5 1.5v17.25c0 .828.672 1.5 1.5 1.5h82.07c.828 0 1.5-.672 1.5-1.5v-17.25c0-.828-.672-1.5-1.5-1.5zm-1.5 17.25h-79.07v-14.25h79.07z" fill="#3a312a"/><path d="m79.242 173.003h55.185v17.25h-55.185z" fill="#f16c7a"/><path d="m134.427 171.503h-55.185c-.828 0-1.5.672-1.5 1.5v17.25c0 .828.672 1.5 1.5 1.5h55.185c.828 0 1.5-.672 1.5-1.5v-17.25c0-.828-.672-1.5-1.5-1.5zm-1.5 17.25h-52.185v-14.25h52.185z" fill="#3a312a"/><path d="m79.242 203.003h82.07v17.25h-82.07z" fill="#8ac5dc"/><path d="m161.313 201.503h-82.07c-.828 0-1.5.672-1.5 1.5v17.25c0 .828.672 1.5 1.5 1.5h82.07c.828 0 1.5-.672 1.5-1.5v-17.25c0-.828-.672-1.5-1.5-1.5zm-1.5 17.25h-79.07v-14.25h79.07z" fill="#3a312a"/><path d="m79.242 203.003h32.534v17.25h-32.534z" fill="#d6df58"/><path d="m111.776 201.503h-32.534c-.828 0-1.5.672-1.5 1.5v17.25c0 .828.672 1.5 1.5 1.5h32.534c.828 0 1.5-.672 1.5-1.5v-17.25c0-.828-.672-1.5-1.5-1.5zm-1.5 17.25h-29.534v-14.25h29.534z" fill="#3a312a"/><g fill="#decaad"><path d="m189.209 203.722c0 6.139 3.837 11.387 9.233 13.505v-27.009c-5.396 2.118-9.233 7.366-9.233 13.504z"/><path d="m184.947 93.113v80.44c.64.22 1.22.59 1.71 1.08l.26.26c2.75-1.51 6.29-2.76 8.3-3.38v-.43c0-2.05 1.37-3.77 3.23-4.35v-73.62zm1.71 139.7c-1.79 1.79-4.69 1.79-6.48 0l-.35-.35c-2.13 2.48-4.86 4.44-7.96 5.68h7.22c4.15 0 8-1.33 11.15-3.56-1.21-.54-2.4-1.13-3.54-1.81z"/></g></svg>